<svg width="187" height="74" viewBox="0 0 187 74" fill="none" xmlns="http://www.w3.org/2000/svg">
<path fill-rule="evenodd" clip-rule="evenodd" d="M11.7096 52.9682C19.2816 48.7495 26.6519 47.4007 33.047 47.7163L35.257 48.1756C39.6462 47.9226 31.6539 45.0071 26.9057 45.8797C22.6678 45.8989 7.09414 49.7062 1.44991 58.4209C0.215737 61.7404 -1.47764 65.2034 2.82729 69.1542C8.10797 74.1861 34.0514 78.4716 51.0411 63.2423C62.4439 53.2743 54.9059 44.7412 50.9837 41.6035C49.5487 40.6279 48.1138 39.6521 46.6789 38.6763C47.3341 29.1005 47.301 17.6881 40.0355 9.26033C50.1498 3.00534 70.1538 -0.560242 64.7161 11.1974C64.1183 12.9959 63.0612 14.3496 62.4635 16.148C61.8367 18.0372 62.7312 18.1329 63.8554 17.2528C66.7731 15.1818 70.1354 11.8193 71.2166 9.40379C71.7329 8.2272 71.5178 5.60125 69.0783 6.96448C68.5427 7.38537 68.0932 7.74885 67.5575 7.76804C68.2272 2.92744 63.9894 -1.62601 53.5524 0.564651C48.0138 1.94689 43.2497 3.87453 38.3136 7.07921C33.0179 2.04669 23.8019 -3.55873 8.52447 3.63536C3.81803 6.88777 0.603514 11.0587 0.0870327 17.2673C-0.401022 22.2894 1.26381 25.2741 2.58386 26.7377C4.58303 29.1485 9.82533 32.5491 16.5888 29.8801C18.4447 29.115 20.3004 28.3496 21.4674 26.422C21.6541 25.4488 21.1088 25.1713 20.5204 25.7621C19.4824 27.0391 18.301 28.2444 15.9862 29.2057C10.0647 31.0999 5.4344 27.9717 3.7604 26.0778C0.938223 23.6383 1.38771 19.7927 1.43581 16.8654C1.7226 11.0492 5.99862 6.12264 9.01205 4.58244C17.4495 -0.181641 29.9622 0.363686 36.2183 8.3707C31.6554 11.1735 28.5605 14.9618 27.4939 18.0707C25.992 24.5185 27.6471 28.5266 31.11 31.6165C34.6401 35.2517 40.3223 37.8537 44.8566 40.9723C44.9332 43.3447 42.9434 52.2029 38.2272 57.7323C36.2328 60.7982 30.7369 65.9878 21.7398 66.844C20.8408 66.8489 20.2285 67.772 21.9121 67.748C24.9494 67.1453 40.8005 66.6862 46.2485 42.1489C49.7354 45.3248 55.5181 53.9535 46.5498 62.0945C40.8771 67.0593 34.8026 68.6091 25.6575 69.8431C17.9277 70.484 5.8361 70.4648 4.01846 64.9642C2.62194 62.8309 4.23844 56.7947 11.7096 52.9682Z" fill="#00A0E3"/>
<path fill-rule="evenodd" clip-rule="evenodd" d="M29.7197 23.4671C30.3509 27.7958 32.9339 32.2678 44.184 37.5293C44.7003 30.0102 43.5526 18.9901 37.1241 10.3232C30.8103 14.0156 29.7197 19.8892 29.7197 23.4671Z" fill="#23282F"/>
<path fill-rule="evenodd" clip-rule="evenodd" d="M107.68 50.1067C109.067 45.5389 111.502 43.6688 116.921 43.5061H128.343C131.342 43.5826 134.93 44.4627 133.681 49.0736C132.476 53.6655 131.27 58.2572 130.065 62.849C128.889 67.1298 127.124 70.2627 120.078 70.3105C116.443 70.2915 112.807 70.2723 109.172 70.2532C106.59 70.2723 102.457 69.3731 104.007 64.1116L107.68 50.1067Z" fill="#FEFEFE"/>
<path fill-rule="evenodd" clip-rule="evenodd" d="M163.872 41.6699H155.664L162.954 14.5783H181.034C182.813 14.7602 187.806 13.8227 186.888 19.8589L185.281 25.943C184.621 27.7032 182.497 30.9271 177.705 31.0513H166.684L163.872 41.6699Z" fill="#FEFEFE"/>
<path fill-rule="evenodd" clip-rule="evenodd" d="M154.344 30.8213L141.085 30.7638L140.167 34.3798H154.746L152.622 41.7266L129.95 41.6118L137.182 14.6352L159.912 14.5777L158.018 21.5227H143.726L142.678 25.2106L155.822 25.225L154.344 30.8213Z" fill="#FEFEFE"/>
<path fill-rule="evenodd" clip-rule="evenodd" d="M123.636 21.4661L118.241 41.6125H126.621L133.738 14.5783H107.795L100.62 41.6699H109L114.396 21.4661H123.636Z" fill="#FEFEFE"/>
<path fill-rule="evenodd" clip-rule="evenodd" d="M75.4232 27.4353L78.6949 14.6358H86.6732L83.9181 25.1395H93.5607L96.3733 14.5783L104.523 14.6358L98.8412 36.0449C97.6696 38.47 96.4258 41.3828 91.6667 41.555L72.209 41.6699L74.103 34.3805H91.0354L92.0111 30.7644C88.0697 30.7644 84.1286 30.7644 80.1873 30.7644C78.4988 30.7309 75.4183 30.8409 75.4232 27.4353Z" fill="#FEFEFE"/>
<path fill-rule="evenodd" clip-rule="evenodd" d="M146.652 43.3917L143.84 54.0102H145.218L156.353 43.4491H164.331L152.966 54.0677C156.924 54.1618 160.464 54.4029 160.026 59.7499L157.099 70.4258L149.063 70.3683L152.105 59.3482L142.405 59.2908L139.42 70.2535L131.442 70.3111L138.617 43.3917H146.652Z" fill="#FEFEFE"/>
<path fill-rule="evenodd" clip-rule="evenodd" d="M115.716 50.279L112.33 63.1934H121.858L125.301 50.279H115.716Z" fill="#23282F"/>
<path fill-rule="evenodd" clip-rule="evenodd" d="M85.267 70.3109L92.7861 55.6171L90.7772 70.3682L98.9275 70.2534L102.199 43.3915H92.3844L85.095 57.8556L85.4965 43.3915L75.567 43.449L64.7188 70.3109L72.8118 70.2534L78.494 55.6171L78.3221 70.3682L85.267 70.3109Z" fill="#FEFEFE"/>
<path fill-rule="evenodd" clip-rule="evenodd" d="M61.8199 70.3682L44.7729 70.2534C48.0256 68.8759 51.6223 66.6661 54.5306 63.1936L63.5993 63.1362L61.8199 70.3682Z" fill="#FEFEFE"/>
<path fill-rule="evenodd" clip-rule="evenodd" d="M69.0381 43.4781L57.6875 43.5067C58.735 45.2526 59.9837 47.3572 59.9693 50.251L67.2157 50.2223L69.0381 43.4781Z" fill="#FEFEFE"/>
<path fill-rule="evenodd" clip-rule="evenodd" d="M39.7798 61.5859C42.6494 57.8838 45.749 54.0095 47.356 48.4994C49.2459 53.8392 44.9343 59.4755 39.7798 61.5859Z" fill="#FEFEFE"/>
<path fill-rule="evenodd" clip-rule="evenodd" d="M54.7896 34.4454H70.8609L69.0239 41.6201L56.0524 41.5626C54.8372 39.9651 52.7326 37.6788 49.9107 36.1673C50.1184 32.1533 50.3712 28.1527 49.5664 23.827C50.1595 21.1103 50.4944 14.9496 59.0657 14.6722C57.8317 16.2792 59.2377 26.2378 70.2867 14.6435L76.1413 14.5862L74.4337 21.5455L58.3481 21.5885L54.7896 34.4454Z" fill="#FEFEFE"/>
<path fill-rule="evenodd" clip-rule="evenodd" d="M169.17 21.5313L168.194 25.3769L177.321 25.4629L178.239 21.5313H169.17Z" fill="#23282F"/>
</svg>
